# xmcd
#
# Track frame offsets: 
#        150
#        12892
#        25745
#        39745
#        52105
#        66192
#        77805
#        89885
#        100822
#        113767
#        127345
#        141600
#
# Disc length: 2065 seconds
#
# Revision: 2
# Processed by: cddbd v1.5.2PL0 Copyright (c) Steve Scherf et al.
# Submitted via: ExactAudioCopy v0.99pb5
#
DISCID=b1080f0c
DTITLE=Country Rose - Bei Country Rose ist was los
DYEAR=1993
DGENRE=Country
TTITLE0=Hallo Country Rose
TTITLE1=Was wärn die Männer ohne die Fraun
TTITLE2=Ist das deine Meinung
TTITLE3=Ein Mann muß nicht nur stark sein
TTITLE4=Du spielst mit dem Feuer
TTITLE5=Die Liebe ist kein SpielTrack  6
TTITLE6=Bei Country Rose ist was los
TTITLE7=Du bist verrückt
TTITLE8=Herbert, Farmer von Beruf
TTITLE9=Nimm mich so wie ich bin
TTITLE10=Du bist wie ein Zug
TTITLE11=Ich will und will doch nicht
EXTD=
EXTT0=
EXTT1=
EXTT2=
EXTT3=
EXTT4=
EXTT5=
EXTT6=
EXTT7=
EXTT8=
EXTT9=
EXTT10=
EXTT11=
PLAYORDER=
